<svg width="62" height="62" fill="none" xmlns="http://www.w3.org/2000/svg">
    <style>
        path {
            fill: #333333;
        }
        @media ( prefers-color-scheme: dark ) {
            path {
                fill: #ffffff;
            }
        }
    </style>
    <path fill-rule="evenodd" clip-rule="evenodd" d="M30.54 2.94A.97.97 0 1 1 30.542 1a.97.97 0 0 1 0 1.94m-.97 57.147a.97.97 0 1 0 1.94 0 .97.97 0 0 0-1.94 0m1.94-54.894a.97.97 0 1 0-1.94 0 .97.97 0 0 0 1.94 0M16.138 9.557a.969.969 0 1 0-1.568 1.14.969.969 0 0 0 1.568-1.14M5.67 38.09a.97.97 0 1 0 .6 1.845.97.97 0 0 0-.6-1.845m.6-15.967a.97.97 0 1 0-.6 1.846.97.97 0 0 0 .6-1.846m8.3 29.237a.97.97 0 1 0 1.57 1.14.97.97 0 0 0-1.57-1.14m15.002 5.504a.97.97 0 1 0 1.939.001.97.97 0 0 0-1.94-.001m15.37-4.364a.97.97 0 1 0 1.569-1.14.97.97 0 0 0-1.568 1.14m9.87-12.566a.969.969 0 1 0 .6-1.842.969.969 0 0 0-.6 1.842m.6-15.967a.968.968 0 1 0-.6-1.844.97.97 0 0 0 .6 1.844m-8.9-13.27a.97.97 0 1 0-1.569-1.139.97.97 0 0 0 1.568 1.14m-15-2.281a.97.97 0 1 0-1.94-.001.97.97 0 0 0 1.94 0M23.717 9.45a.97.97 0 1 0-1.823.664.97.97 0 0 0 1.823-.664m-6.97 3.635a.969.969 0 1 0-1.484 1.244.969.969 0 0 0 1.485-1.244m-5.306 5.799a.968.968 0 0 0-1.324.355.968.968 0 1 0 1.679.969.969.969 0 0 0-.355-1.324M8.44 26.147a.97.97 0 1 0-.337 1.91.97.97 0 0 0 .337-1.91M8.104 34a.97.97 0 1 0 .337 1.91.97.97 0 0 0-.337-1.91m2.37 7.495a.97.97 0 1 0 .97 1.678.97.97 0 0 0-.97-1.678m4.79 6.232a.97.97 0 1 0 1.487 1.246.97.97 0 0 0-1.488-1.246m6.633 4.218a.97.97 0 1 0 1.824.664.97.97 0 0 0-1.824-.664m7.676 1.695a.97.97 0 1 0 1.939.001.97.97 0 0 0-1.94 0m7.793-1.032a.97.97 0 1 0 1.822-.663.97.97 0 0 0-1.822.663m6.969-3.636a.97.97 0 1 0 1.485-1.245.97.97 0 0 0-1.485 1.245m5.306-5.8a.97.97 0 1 0 .97-1.677.97.97 0 0 0-.97 1.678m3.002-7.264a.97.97 0 1 0 .337-1.91.97.97 0 0 0-.337 1.91m.337-7.853a.97.97 0 1 0-.337-1.91.97.97 0 0 0 .337 1.91m-2.37-7.495a.969.969 0 1 0-.967-1.678.969.969 0 0 0 .967 1.678m-4.79-6.232a.97.97 0 1 0-1.486-1.246.97.97 0 0 0 1.487 1.246m-6.633-4.218a.97.97 0 1 0-1.822-.663.97.97 0 0 0 1.822.663M31.51 11.64a.97.97 0 1 0-1.939 0 .97.97 0 0 0 1.94 0m-3.802.183a.97.97 0 1 0-1.903.38.97.97 0 0 0 1.903-.38m-3.692.922a.97.97 0 1 0-1.79.742.97.97 0 0 0 1.79-.742m-3.441 1.624a.97.97 0 1 0 0 0m-3.059 2.264a.969.969 0 1 0-1.37 1.37.969.969 0 0 0 1.37-1.37m-2.558 2.818a.97.97 0 1 0-1.077 1.613.97.97 0 0 0 1.077-1.613m-1.96 3.262a.97.97 0 1 0-.742 1.791.97.97 0 0 0 .743-1.791m-1.286 3.582a.97.97 0 1 0-.378 1.9.97.97 0 0 0 .378-1.9m-.562 3.764a.97.97 0 1 0 0 1.939.97.97 0 0 0 0-1.939m.184 3.801a.97.97 0 1 0 .378 1.903.97.97 0 0 0-.379-1.903m.922 3.692a.97.97 0 1 0 .742 1.79.97.97 0 0 0-.742-1.79m1.624 3.442a.97.97 0 1 0 1.079 1.614.97.97 0 0 0-1.079-1.614m2.265 3.059a.969.969 0 1 0 1.369 1.37.969.969 0 0 0-1.369-1.37m2.817 2.558a.969.969 0 1 0 1.611 1.077.969.969 0 0 0-1.61-1.077m3.261 1.959a.97.97 0 1 0 1.794.741.97.97 0 0 0-1.794-.741m3.582 1.285a.97.97 0 1 0 1.903.378.97.97 0 0 0-1.903-.378m3.765.562a.97.97 0 1 0 1.938 0 .97.97 0 0 0-1.938 0m3.8-.184a.97.97 0 1 0 1.903-.378.97.97 0 0 0-1.902.379m3.692-.922a.97.97 0 1 0 1.793-.743.97.97 0 0 0-1.793.743m3.441-1.624a.97.97 0 1 0 1.614-1.079.97.97 0 0 0-1.614 1.08m3.059-2.265a.97.97 0 1 0 1.371-1.374.97.97 0 0 0-1.371 1.374m2.559-2.817a.97.97 0 1 0 1.077-1.612.97.97 0 0 0-1.077 1.612m1.959-3.263a.97.97 0 1 0 .742-1.791.97.97 0 0 0-.742 1.79m1.285-3.581a.97.97 0 0 0 .379-1.902.97.97 0 0 0-.379 1.902m.561-3.764a.97.97 0 1 0 0-1.94.97.97 0 0 0 0 1.94m-.182-3.801a.97.97 0 1 0-.381-1.904.97.97 0 0 0 .38 1.904m-.921-3.692a.97.97 0 1 0-.742-1.791.97.97 0 0 0 .742 1.79m-1.624-3.44a.97.97 0 1 0 0 0m-2.265-3.06a.969.969 0 1 0-1.369-1.37.969.969 0 0 0 1.37 1.37m-2.818-2.558a.969.969 0 1 0-1.61-1.077.969.969 0 0 0 1.61 1.077m-3.263-1.96a.97.97 0 1 0-1.79-.743.97.97 0 0 0 1.79.744m-3.582-1.285a.97.97 0 1 0-1.901-.379.97.97 0 0 0 1.901.379m-3.764 2.661a.97.97 0 1 0-1.939.001.97.97 0 0 0 1.94 0m-5.588.643a.97.97 0 1 0-1.823.664.97.97 0 0 0 1.823-.664m-5.03 2.515a.97.97 0 1 0-1.485 1.248.97.97 0 0 0 1.485-1.248m-3.867 4.085a.969.969 0 1 0-.97 1.677.969.969 0 0 0 .97-1.677m-2.236 5.16a.97.97 0 1 0-.337 1.91.97.97 0 0 0 .337-1.91m-.337 5.614a.97.97 0 1 0 .337 1.91.97.97 0 0 0-.337-1.91m1.604 5.39a.969.969 0 1 0 .967 1.68.969.969 0 0 0-.967-1.68m3.35 4.517a.969.969 0 1 0 1.484 1.247.969.969 0 0 0-1.483-1.247m4.693 3.099a.97.97 0 1 0 1.82.664.97.97 0 0 0-1.82-.664m5.47 1.306a.97.97 0 1 0 1.94.002.97.97 0 0 0-1.94-.002m5.588-.643a.969.969 0 1 0 1.82-.662.969.969 0 0 0-1.82.662m5.03-2.515a.97.97 0 1 0 1.486-1.247.97.97 0 0 0-1.486 1.247m3.866-4.084a.97.97 0 1 0 .97-1.68.97.97 0 0 0-.97 1.68m2.237-5.16a.97.97 0 1 0 .336-1.911.97.97 0 0 0-.336 1.91m.337-5.614a.97.97 0 1 0-.338-1.91.97.97 0 0 0 .338 1.91m-1.604-5.39a.969.969 0 1 0-.968-1.679.969.969 0 0 0 .968 1.679m-3.35-4.517a.97.97 0 1 0-1.487-1.247.97.97 0 0 0 1.486 1.247m-4.693-3.099a.97.97 0 1 0-1.822-.663.97.97 0 0 0 1.822.663m-5.47 1.917a.97.97 0 1 0-1.94 0 .97.97 0 0 0 1.94 0m-9.435 3.105a.97.97 0 1 0-1.371 1.374.97.97 0 0 0 1.37-1.374M17.6 30.059a.97.97 0 1 0 0 1.94.97.97 0 0 0 0-1.94m3.106 9.435a.969.969 0 1 0 1.369 1.37.969.969 0 0 0-1.37-1.37m8.868 4.476a.97.97 0 1 0 1.939.001.97.97 0 0 0-1.94-.001m9.435-3.105a.969.969 0 1 0 1.371-1.369.969.969 0 0 0-1.37 1.369m4.476-8.867a.97.97 0 1 0 0-1.939.97.97 0 0 0 0 1.94m-3.105-9.436a.969.969 0 1 0-1.37-1.37.969.969 0 0 0 1.37 1.37m-8.868-1.252a.97.97 0 1 0-1.939-.001.97.97 0 0 0 1.94 0m-1.94 19.437a.97.97 0 1 0 1.94 0 .97.97 0 0 0-1.94 0" />
</svg>